<mxfile host="Electron" modified="2023-11-14T16:09:44.817Z" agent="Mozilla/5.0 (Windows NT 10.0; Win64; x64) AppleWebKit/537.36 (KHTML, like Gecko) draw.io/22.0.3 Chrome/114.0.5735.289 Electron/25.8.4 Safari/537.36" etag="JkcMSl88VW97TctYLYqL" version="22.0.3" type="device">
  <diagram name="Page-1" id="sDerN3YPrkXuLaFKuHpY">
    <mxGraphModel dx="864" dy="508" grid="1" gridSize="10" guides="1" tooltips="1" connect="1" arrows="1" fold="1" page="1" pageScale="1" pageWidth="850" pageHeight="1100" math="0" shadow="0">
      <root>
        <mxCell id="0" />
        <mxCell id="1" parent="0" />
        <mxCell id="JoH18x_kwESWeVap3KXr-1" value="Ireland" style="points=[[0,0],[0.25,0],[0.5,0],[0.75,0],[1,0],[1,0.25],[1,0.5],[1,0.75],[1,1],[0.75,1],[0.5,1],[0.25,1],[0,1],[0,0.75],[0,0.5],[0,0.25]];outlineConnect=0;gradientColor=none;html=1;whiteSpace=wrap;fontSize=12;fontStyle=0;container=1;pointerEvents=0;collapsible=0;recursiveResize=0;shape=mxgraph.aws4.group;grIcon=mxgraph.aws4.group_region;strokeColor=#147EBA;fillColor=none;verticalAlign=top;align=left;spacingLeft=30;fontColor=#147EBA;dashed=1;" vertex="1" parent="1">
          <mxGeometry x="30" y="20" width="650" height="460" as="geometry" />
        </mxCell>
        <mxCell id="JoH18x_kwESWeVap3KXr-2" value="cit1 VPC" style="points=[[0,0],[0.25,0],[0.5,0],[0.75,0],[1,0],[1,0.25],[1,0.5],[1,0.75],[1,1],[0.75,1],[0.5,1],[0.25,1],[0,1],[0,0.75],[0,0.5],[0,0.25]];outlineConnect=0;gradientColor=none;html=1;whiteSpace=wrap;fontSize=12;fontStyle=0;container=1;pointerEvents=0;collapsible=0;recursiveResize=0;shape=mxgraph.aws4.group;grIcon=mxgraph.aws4.group_vpc;strokeColor=#248814;fillColor=none;verticalAlign=top;align=left;spacingLeft=30;fontColor=#AAB7B8;dashed=0;" vertex="1" parent="1">
          <mxGeometry x="60" y="60" width="590" height="380" as="geometry" />
        </mxCell>
        <mxCell id="JoH18x_kwESWeVap3KXr-4" value="eu-west-1a" style="sketch=0;outlineConnect=0;gradientColor=none;html=1;whiteSpace=wrap;fontSize=12;fontStyle=0;shape=mxgraph.aws4.group;grIcon=mxgraph.aws4.group_availability_zone;strokeColor=#545B64;fillColor=none;verticalAlign=top;align=left;spacingLeft=30;fontColor=#545B64;dashed=1;" vertex="1" parent="JoH18x_kwESWeVap3KXr-2">
          <mxGeometry x="25" y="20" width="535" height="150" as="geometry" />
        </mxCell>
        <mxCell id="JoH18x_kwESWeVap3KXr-5" value="eu-west-1b" style="sketch=0;outlineConnect=0;gradientColor=none;html=1;whiteSpace=wrap;fontSize=12;fontStyle=0;shape=mxgraph.aws4.group;grIcon=mxgraph.aws4.group_availability_zone;strokeColor=#545B64;fillColor=none;verticalAlign=top;align=left;spacingLeft=30;fontColor=#545B64;dashed=1;" vertex="1" parent="JoH18x_kwESWeVap3KXr-2">
          <mxGeometry x="40" y="220" width="520" height="150" as="geometry" />
        </mxCell>
        <mxCell id="JoH18x_kwESWeVap3KXr-6" value="cit1-public-lb-subnet-0" style="points=[[0,0],[0.25,0],[0.5,0],[0.75,0],[1,0],[1,0.25],[1,0.5],[1,0.75],[1,1],[0.75,1],[0.5,1],[0.25,1],[0,1],[0,0.75],[0,0.5],[0,0.25]];outlineConnect=0;gradientColor=none;html=1;whiteSpace=wrap;fontSize=12;fontStyle=0;container=1;pointerEvents=0;collapsible=0;recursiveResize=0;shape=mxgraph.aws4.group;grIcon=mxgraph.aws4.group_security_group;grStroke=0;strokeColor=#248814;fillColor=#E9F3E6;verticalAlign=top;align=left;spacingLeft=30;fontColor=#248814;dashed=0;" vertex="1" parent="JoH18x_kwESWeVap3KXr-2">
          <mxGeometry x="110" y="50" width="130" height="110" as="geometry" />
        </mxCell>
        <mxCell id="JoH18x_kwESWeVap3KXr-18" value="" style="sketch=0;outlineConnect=0;fontColor=#232F3E;gradientColor=none;fillColor=#8C4FFF;strokeColor=none;dashed=0;verticalLabelPosition=bottom;verticalAlign=top;align=center;html=1;fontSize=12;fontStyle=0;aspect=fixed;pointerEvents=1;shape=mxgraph.aws4.elastic_network_interface;" vertex="1" parent="JoH18x_kwESWeVap3KXr-6">
          <mxGeometry x="90" y="38" width="34" height="34" as="geometry" />
        </mxCell>
        <mxCell id="JoH18x_kwESWeVap3KXr-7" value="cit1-public-lb-subnet-1" style="points=[[0,0],[0.25,0],[0.5,0],[0.75,0],[1,0],[1,0.25],[1,0.5],[1,0.75],[1,1],[0.75,1],[0.5,1],[0.25,1],[0,1],[0,0.75],[0,0.5],[0,0.25]];outlineConnect=0;gradientColor=none;html=1;whiteSpace=wrap;fontSize=12;fontStyle=0;container=1;pointerEvents=0;collapsible=0;recursiveResize=0;shape=mxgraph.aws4.group;grIcon=mxgraph.aws4.group_security_group;grStroke=0;strokeColor=#248814;fillColor=#E9F3E6;verticalAlign=top;align=left;spacingLeft=30;fontColor=#248814;dashed=0;" vertex="1" parent="JoH18x_kwESWeVap3KXr-2">
          <mxGeometry x="110" y="250" width="130" height="110" as="geometry" />
        </mxCell>
        <mxCell id="JoH18x_kwESWeVap3KXr-9" value="cit1-private-lb-subnet-0" style="points=[[0,0],[0.25,0],[0.5,0],[0.75,0],[1,0],[1,0.25],[1,0.5],[1,0.75],[1,1],[0.75,1],[0.5,1],[0.25,1],[0,1],[0,0.75],[0,0.5],[0,0.25]];outlineConnect=0;gradientColor=none;html=1;whiteSpace=wrap;fontSize=12;fontStyle=0;container=1;pointerEvents=0;collapsible=0;recursiveResize=0;shape=mxgraph.aws4.group;grIcon=mxgraph.aws4.group_security_group;grStroke=0;strokeColor=#147EBA;fillColor=#E6F2F8;verticalAlign=top;align=left;spacingLeft=30;fontColor=#147EBA;dashed=0;" vertex="1" parent="JoH18x_kwESWeVap3KXr-2">
          <mxGeometry x="330" y="50" width="130" height="110" as="geometry" />
        </mxCell>
        <mxCell id="JoH18x_kwESWeVap3KXr-39" value="" style="sketch=0;outlineConnect=0;fontColor=#232F3E;gradientColor=none;fillColor=#ED7100;strokeColor=none;dashed=0;verticalLabelPosition=bottom;verticalAlign=top;align=center;html=1;fontSize=12;fontStyle=0;aspect=fixed;pointerEvents=1;shape=mxgraph.aws4.instance2;" vertex="1" parent="JoH18x_kwESWeVap3KXr-9">
          <mxGeometry x="60" y="40" width="48" height="48" as="geometry" />
        </mxCell>
        <mxCell id="JoH18x_kwESWeVap3KXr-10" value="cit1-private-lb-subnet-1" style="points=[[0,0],[0.25,0],[0.5,0],[0.75,0],[1,0],[1,0.25],[1,0.5],[1,0.75],[1,1],[0.75,1],[0.5,1],[0.25,1],[0,1],[0,0.75],[0,0.5],[0,0.25]];outlineConnect=0;gradientColor=none;html=1;whiteSpace=wrap;fontSize=12;fontStyle=0;container=1;pointerEvents=0;collapsible=0;recursiveResize=0;shape=mxgraph.aws4.group;grIcon=mxgraph.aws4.group_security_group;grStroke=0;strokeColor=#147EBA;fillColor=#E6F2F8;verticalAlign=top;align=left;spacingLeft=30;fontColor=#147EBA;dashed=0;" vertex="1" parent="JoH18x_kwESWeVap3KXr-2">
          <mxGeometry x="330" y="250" width="130" height="110" as="geometry" />
        </mxCell>
        <mxCell id="JoH18x_kwESWeVap3KXr-21" value="" style="sketch=0;outlineConnect=0;fontColor=#232F3E;gradientColor=none;fillColor=#8C4FFF;strokeColor=none;dashed=0;verticalLabelPosition=bottom;verticalAlign=top;align=center;html=1;fontSize=12;fontStyle=0;aspect=fixed;pointerEvents=1;shape=mxgraph.aws4.elastic_network_interface;" vertex="1" parent="JoH18x_kwESWeVap3KXr-10">
          <mxGeometry x="10" y="40" width="34" height="34" as="geometry" />
        </mxCell>
        <mxCell id="JoH18x_kwESWeVap3KXr-37" value="" style="sketch=0;outlineConnect=0;fontColor=#232F3E;gradientColor=none;fillColor=#ED7100;strokeColor=none;dashed=0;verticalLabelPosition=bottom;verticalAlign=top;align=center;html=1;fontSize=12;fontStyle=0;aspect=fixed;pointerEvents=1;shape=mxgraph.aws4.instance2;" vertex="1" parent="JoH18x_kwESWeVap3KXr-10">
          <mxGeometry x="60" y="42" width="48" height="48" as="geometry" />
        </mxCell>
        <mxCell id="JoH18x_kwESWeVap3KXr-12" value="" style="edgeStyle=orthogonalEdgeStyle;rounded=0;orthogonalLoop=1;jettySize=auto;html=1;strokeColor=default;startArrow=classic;startFill=1;" edge="1" parent="JoH18x_kwESWeVap3KXr-2" source="JoH18x_kwESWeVap3KXr-11">
          <mxGeometry relative="1" as="geometry">
            <mxPoint x="40" y="184" as="sourcePoint" />
            <mxPoint x="260" y="190" as="targetPoint" />
            <Array as="points">
              <mxPoint x="139" y="184" />
              <mxPoint x="139" y="190" />
            </Array>
          </mxGeometry>
        </mxCell>
        <mxCell id="JoH18x_kwESWeVap3KXr-43" style="edgeStyle=orthogonalEdgeStyle;rounded=0;orthogonalLoop=1;jettySize=auto;html=1;" edge="1" parent="JoH18x_kwESWeVap3KXr-2" source="JoH18x_kwESWeVap3KXr-11" target="JoH18x_kwESWeVap3KXr-2">
          <mxGeometry relative="1" as="geometry" />
        </mxCell>
        <mxCell id="JoH18x_kwESWeVap3KXr-11" value="Internet Gateway&lt;br&gt;" style="sketch=0;outlineConnect=0;fontColor=#232F3E;gradientColor=none;fillColor=#8C4FFF;strokeColor=none;dashed=0;verticalLabelPosition=bottom;verticalAlign=top;align=center;html=1;fontSize=12;fontStyle=0;aspect=fixed;pointerEvents=1;shape=mxgraph.aws4.internet_gateway;" vertex="1" parent="JoH18x_kwESWeVap3KXr-2">
          <mxGeometry x="-10" y="170" width="28" height="28" as="geometry" />
        </mxCell>
        <mxCell id="JoH18x_kwESWeVap3KXr-26" value="" style="edgeStyle=orthogonalEdgeStyle;rounded=0;orthogonalLoop=1;jettySize=auto;html=1;" edge="1" parent="JoH18x_kwESWeVap3KXr-2" target="JoH18x_kwESWeVap3KXr-18">
          <mxGeometry relative="1" as="geometry">
            <mxPoint x="260" y="180" as="sourcePoint" />
            <Array as="points">
              <mxPoint x="250" y="180" />
              <mxPoint x="250" y="105" />
            </Array>
          </mxGeometry>
        </mxCell>
        <mxCell id="JoH18x_kwESWeVap3KXr-27" value="" style="edgeStyle=orthogonalEdgeStyle;rounded=0;orthogonalLoop=1;jettySize=auto;html=1;" edge="1" parent="JoH18x_kwESWeVap3KXr-2" target="JoH18x_kwESWeVap3KXr-20">
          <mxGeometry relative="1" as="geometry">
            <mxPoint x="260" y="200" as="sourcePoint" />
            <Array as="points">
              <mxPoint x="250" y="200" />
              <mxPoint x="250" y="305" />
            </Array>
          </mxGeometry>
        </mxCell>
        <mxCell id="JoH18x_kwESWeVap3KXr-28" value="" style="edgeStyle=orthogonalEdgeStyle;rounded=0;orthogonalLoop=1;jettySize=auto;html=1;" edge="1" parent="JoH18x_kwESWeVap3KXr-2" source="JoH18x_kwESWeVap3KXr-19">
          <mxGeometry relative="1" as="geometry">
            <mxPoint x="294" y="180" as="targetPoint" />
            <Array as="points">
              <mxPoint x="310" y="105" />
              <mxPoint x="310" y="180" />
            </Array>
          </mxGeometry>
        </mxCell>
        <mxCell id="JoH18x_kwESWeVap3KXr-19" value="" style="sketch=0;outlineConnect=0;fontColor=#232F3E;gradientColor=none;fillColor=#8C4FFF;strokeColor=none;dashed=0;verticalLabelPosition=bottom;verticalAlign=top;align=center;html=1;fontSize=12;fontStyle=0;aspect=fixed;pointerEvents=1;shape=mxgraph.aws4.elastic_network_interface;" vertex="1" parent="JoH18x_kwESWeVap3KXr-2">
          <mxGeometry x="340" y="88" width="34" height="34" as="geometry" />
        </mxCell>
        <mxCell id="JoH18x_kwESWeVap3KXr-20" value="" style="sketch=0;outlineConnect=0;fontColor=#232F3E;gradientColor=none;fillColor=#8C4FFF;strokeColor=none;dashed=0;verticalLabelPosition=bottom;verticalAlign=top;align=center;html=1;fontSize=12;fontStyle=0;aspect=fixed;pointerEvents=1;shape=mxgraph.aws4.elastic_network_interface;" vertex="1" parent="JoH18x_kwESWeVap3KXr-2">
          <mxGeometry x="200" y="288" width="34" height="34" as="geometry" />
        </mxCell>
        <mxCell id="JoH18x_kwESWeVap3KXr-29" value="" style="edgeStyle=orthogonalEdgeStyle;rounded=0;orthogonalLoop=1;jettySize=auto;html=1;" edge="1" parent="JoH18x_kwESWeVap3KXr-2" source="JoH18x_kwESWeVap3KXr-21">
          <mxGeometry relative="1" as="geometry">
            <mxPoint x="294" y="200" as="targetPoint" />
            <Array as="points">
              <mxPoint x="310" y="307" />
              <mxPoint x="310" y="200" />
            </Array>
          </mxGeometry>
        </mxCell>
        <mxCell id="JoH18x_kwESWeVap3KXr-36" value="" style="sketch=0;outlineConnect=0;fontColor=#232F3E;gradientColor=none;fillColor=#ED7100;strokeColor=none;dashed=0;verticalLabelPosition=bottom;verticalAlign=top;align=center;html=1;fontSize=12;fontStyle=0;aspect=fixed;pointerEvents=1;shape=mxgraph.aws4.instance2;" vertex="1" parent="JoH18x_kwESWeVap3KXr-2">
          <mxGeometry x="130" y="292" width="48" height="48" as="geometry" />
        </mxCell>
        <mxCell id="JoH18x_kwESWeVap3KXr-38" value="CIT1 Instance" style="sketch=0;outlineConnect=0;fontColor=#232F3E;gradientColor=none;fillColor=#ED7100;strokeColor=none;dashed=0;verticalLabelPosition=bottom;verticalAlign=top;align=center;html=1;fontSize=12;fontStyle=0;aspect=fixed;pointerEvents=1;shape=mxgraph.aws4.instance2;" vertex="1" parent="JoH18x_kwESWeVap3KXr-2">
          <mxGeometry x="130" y="90" width="48" height="48" as="geometry" />
        </mxCell>
        <mxCell id="JoH18x_kwESWeVap3KXr-44" value="cit1-public-subnet-RT" style="outlineConnect=0;dashed=0;verticalLabelPosition=bottom;verticalAlign=top;align=center;html=1;shape=mxgraph.aws3.route_table;fillColor=#F58536;gradientColor=none;" vertex="1" parent="JoH18x_kwESWeVap3KXr-2">
          <mxGeometry x="230" y="30" width="50" height="49" as="geometry" />
        </mxCell>
        <mxCell id="JoH18x_kwESWeVap3KXr-45" value="cit1-public-subnet-RT" style="outlineConnect=0;dashed=0;verticalLabelPosition=bottom;verticalAlign=top;align=center;html=1;shape=mxgraph.aws3.route_table;fillColor=#F58536;gradientColor=none;" vertex="1" parent="JoH18x_kwESWeVap3KXr-2">
          <mxGeometry x="234" y="310" width="50" height="50" as="geometry" />
        </mxCell>
        <mxCell id="JoH18x_kwESWeVap3KXr-47" value="cit1-private-subnet-RT" style="outlineConnect=0;dashed=0;verticalLabelPosition=bottom;verticalAlign=top;align=center;html=1;shape=mxgraph.aws3.route_table;fillColor=#F58536;gradientColor=none;" vertex="1" parent="JoH18x_kwESWeVap3KXr-2">
          <mxGeometry x="450" y="20" width="50" height="50" as="geometry" />
        </mxCell>
        <mxCell id="JoH18x_kwESWeVap3KXr-49" value="" style="sketch=0;outlineConnect=0;fontColor=#232F3E;gradientColor=none;fillColor=#8C4FFF;strokeColor=none;dashed=0;verticalLabelPosition=bottom;verticalAlign=top;align=center;html=1;fontSize=12;fontStyle=0;aspect=fixed;pointerEvents=1;shape=mxgraph.aws4.router;" vertex="1" parent="JoH18x_kwESWeVap3KXr-2">
          <mxGeometry x="260" y="170" width="40" height="40" as="geometry" />
        </mxCell>
        <mxCell id="JoH18x_kwESWeVap3KXr-46" value="cit1-private-subnet-RT" style="outlineConnect=0;dashed=0;verticalLabelPosition=bottom;verticalAlign=top;align=center;html=1;shape=mxgraph.aws3.route_table;fillColor=#F58536;gradientColor=none;" vertex="1" parent="1">
          <mxGeometry x="501" y="372" width="50" height="50" as="geometry" />
        </mxCell>
      </root>
    </mxGraphModel>
  </diagram>
</mxfile>
